<?xml version="1.0" encoding="UTF-8" standalone="no"?>
<svg
   xmlns:dc="http://purl.org/dc/elements/1.1/"
   xmlns:cc="http://creativecommons.org/ns#"
   xmlns:rdf="http://www.w3.org/1999/02/22-rdf-syntax-ns#"
   xmlns:svg="http://www.w3.org/2000/svg"
   xmlns="http://www.w3.org/2000/svg"
   xmlns:sodipodi="http://sodipodi.sourceforge.net/DTD/sodipodi-0.dtd"
   xmlns:inkscape="http://www.inkscape.org/namespaces/inkscape"
   height="512px"
   id="Layer_1"
   style="enable-background:new 0 0 512 512;"
   version="1.1"
   viewBox="0 0 512 512"
   width="512px"
   xml:space="preserve"
   sodipodi:docname="if_icon-trash-b_211935.svg"
   inkscape:version="0.92.3 (2405546, 2018-03-11)"><metadata
     id="metadata13"><rdf:RDF><cc:Work
         rdf:about=""><dc:format>image/svg+xml</dc:format><dc:type
           rdf:resource="http://purl.org/dc/dcmitype/StillImage" /><dc:title></dc:title></cc:Work></rdf:RDF></metadata><defs
     id="defs11" /><sodipodi:namedview
     pagecolor="#ffffff"
     bordercolor="#666666"
     borderopacity="1"
     objecttolerance="10"
     gridtolerance="10"
     guidetolerance="10"
     inkscape:pageopacity="0"
     inkscape:pageshadow="2"
     inkscape:window-width="851"
     inkscape:window-height="480"
     id="namedview9"
     showgrid="false"
     inkscape:zoom="0.4609375"
     inkscape:cx="36.881356"
     inkscape:cy="256"
     inkscape:window-x="0"
     inkscape:window-y="33"
     inkscape:window-maximized="0"
     inkscape:current-layer="Layer_1" /><g
     id="g6"
     style="fill:#ffffff"><path
       d="M413.7,133.4c-2.4-9-4-14-4-14c-2.6-9.3-9.2-9.3-19-10.9l-53.1-6.7c-6.6-1.1-6.6-1.1-9.2-6.8c-8.7-19.6-11.4-31-20.9-31   h-103c-9.5,0-12.1,11.4-20.8,31.1c-2.6,5.6-2.6,5.6-9.2,6.8l-53.2,6.7c-9.7,1.6-16.7,2.5-19.3,11.8c0,0-1.2,4.1-3.7,13   c-3.2,11.9-4.5,10.6,6.5,10.6h302.4C418.2,144.1,417,145.3,413.7,133.4z"
       id="path2"
       style="fill:#ffffff" /><path
       d="M379.4,176H132.6c-16.6,0-17.4,2.2-16.4,14.7l18.7,242.6c1.6,12.3,2.8,14.8,17.5,14.8h207.2c14.7,0,15.9-2.5,17.5-14.8   l18.7-242.6C396.8,178.1,396,176,379.4,176z"
       id="path4"
       style="fill:#ffffff" /></g></svg>